<?xml version="1.0" encoding="UTF-8" standalone="no"?>
<svg xmlns="http://www.w3.org/2000/svg" width="264" height="162" viewBox="0 0 264 162">
    <defs>
        <clipPath id="a">
            <path d="M0 0v152l12 10 12-10 12 10 12-10 12 10 12-10 12 10 12-10 12 10 12-10 12 10 12-10 12 10 12-10 12 10 12-10 12 10 12-10 12 10 12-10 12 10 12-10V0z"/>
        </clipPath>
    </defs>
    <g clip-path="url(#a)">
        <path fill="#fff" d="M263.5 162.25l-263-.5V.5h263z"/>
        <path fill="#e5e5e5" d="M252 162.496V29H48v133.496zM11 22c0-7.732 6.268-14 14-14s14 6.268 14 14-6.268 14-14 14-14-6.268-14-14zM38 163.807V58H13v105.807h25zM233 5h26v6h-26V5zm-24 0h22v6h-22zm-24 0h22v6h-22zm-23 0h13v6h-13zm15 0h6v6h-6zm-23 0h6v6h-6z"/>
        <g fill="#e5e5e5">
            <path d="M258 16v4h-92v-4h92m1-1h-94v6h94v-6z"/>
            <path d="M168 17h2v2h-2z"/>
        </g>
        <path fill="#e5e5e5" d="M38 45v-5H13v5h25z"/>
        <path fill="#e5e5e5" d="M0 0v162h264V0zm1 1h262v150.533l-11 9.166-12-10-12 10-12-10-12 10-12-10-12 10-12-10-12 10-12-10-12 10-12-10-12 10-12-10-12 10-12-10-12 10-12-10-12 10-12-10-12 10-11-9.168z"/>
        <path d="M59 37.333h54v6H59zM79 115.334h161v3H79zM59 135.334h104v3H59zM59 100.334h39v3H59zM59 125.334h181v3H59zM79 51.334h88.95v3H79z" fill="#cdcccc"/>
        <g fill="#cdcccc">
            <path d="M59 89.334h110v3H59zM59 79.334h110v3H59zM59 69.334h110v3H59zM59 60.334h110v3H59z"/>
        </g>
    </g>
    <g transform="translate(328.671 117.826)" fill="#36c">
        <path d="M-89.1-82.232h-60v46.153h60zm-40.536 20.066h2.158l13.385 13.237 7.27-4.359 10.948 9.143v.039h-47.918z"/>
        <rect ry=".149" rx=".277" y="-32.232" x="-149.101" height="3" width="60"/>
    </g>
</svg>
