<?xml version="1.0" encoding="utf-8"?>
<svg xmlns="http://www.w3.org/2000/svg" viewBox="0 0 264 162" height="162" width="264">
	<defs>
		<clipPath id="a">
			<path d="M0 0v152l12 10 12-10 12 10 12-10 12 10 12-10 12 10 12-10 12 10 12-10 12 10 12-10 12 10 12-10 12 10 12-10 12 10 12-10 12 10 12-10 12 10 12-10V0z"/>
		</clipPath>
	</defs>
	<g clip-path="url(#a)">
		<path fill="#fff" d="M263.5 162.25l-263-.5V.5h263z"/>
		<path fill="#e5e5e5" d="M252 162.496V29H48v133.496zM11 22c0-7.732 6.268-14 14-14s14 6.268 14 14-6.268 14-14 14-14-6.268-14-14zm27 141.807V58H13v105.807h25zM233 5h26v6h-26V5zm-24 0h22v6h-22zm-24 0h22v6h-22zm-23 0h13v6h-13zm15 0h6v6h-6zm-23 0h6v6h-6z"/>
		<g fill="#e5e5e5">
			<path d="M258 16v4h-92v-4h92m1-1h-94v6h94v-6z"/>
			<path d="M168 17h2v2h-2z"/>
		</g>
		<path fill="#e5e5e5" d="M38 45v-5H13v5h25z"/>
		<path fill="#e5e5e5" d="M0 0v162h264V0zm1 1h262v150.533l-11 9.166-12-10-12 10-12-10-12 10-12-10-12 10-12-10-12 10-12-10-12 10-12-10-12 10-12-10-12 10-12-10-12 10-12-10-12 10-12-10-12 10-11-9.168z"/>
		<path fill="#cdcccc" d="M59 37.333h54v6H59zm20 78.001h161v3H79zm-20 20h104v3H59zm0-35h39v3H59zm0 25h181v3H59zm20-74h88.95v3H79zM59 89.334h110v3H59zm0-10h110v3H59zm0-10h110v3H59zm0-9h110v3H59z"/>
	</g>
	<g transform="translate(0 15.153)" fill="#36c">
		<path fill="#fff" d="M195 46.847h35v25h-35z"/>
		<path d="M180 35.848V82h60V35.848zm19.858 13.256l23.432 10.81-23.432 9.977z"/>
		<rect width="60" height="3" x="179.999" y="85.847" rx=".277" ry=".149"/>
	</g>
</svg>
