<?xml version="1.0" encoding="UTF-8" standalone="no"?>
<svg
   xmlns:dc="http://purl.org/dc/elements/1.1/"
   xmlns:cc="http://creativecommons.org/ns#"
   xmlns:rdf="http://www.w3.org/1999/02/22-rdf-syntax-ns#"
   xmlns:svg="http://www.w3.org/2000/svg"
   xmlns="http://www.w3.org/2000/svg"
   xmlns:sodipodi="http://sodipodi.sourceforge.net/DTD/sodipodi-0.dtd"
   xmlns:inkscape="http://www.inkscape.org/namespaces/inkscape"
   width="264"
   height="162"
   viewBox="0 0 264 162"
   id="svg2"
   version="1.1"
   inkscape:version="0.91 r13725"
   sodipodi:docname="BetaFeature_TMH_VIDEOJS.svg">
  <metadata
     id="metadata64">
    <rdf:RDF>
      <cc:Work
         rdf:about="">
        <dc:format>image/svg+xml</dc:format>
        <dc:type
           rdf:resource="http://purl.org/dc/dcmitype/StillImage" />
      </cc:Work>
    </rdf:RDF>
  </metadata>
  <defs
     id="defs62" />
  <sodipodi:namedview
     pagecolor="#ffffff"
     bordercolor="#666666"
     borderopacity="1"
     objecttolerance="10"
     gridtolerance="10"
     guidetolerance="10"
     inkscape:pageopacity="0"
     inkscape:pageshadow="2"
     inkscape:window-width="1366"
     inkscape:window-height="705"
     id="namedview60"
     showgrid="false"
     inkscape:zoom="1.0909091"
     inkscape:cx="30.25"
     inkscape:cy="81"
     inkscape:window-x="-8"
     inkscape:window-y="-8"
     inkscape:window-maximized="1"
     inkscape:current-layer="svg2" />
  <g
     id="g4">
    <path
       fill="#fff"
       d="M13.366 161.357l-12.866-9.608v-151.249h263v151.749l-9 6.705v-116.454h-39v112.6l-4.393-3.731-7.607 5.33v-114.199h-155v110.85l-9.751 8.03-13.916-10.019z"
       id="path6" />
    <path
       d="M263 1v150.998l-8 5.96v-115.958h-40v112.02l-3.274-2.781-.589-.498-.633.441-6.504 4.556v-113.738h-156v111.1l-9.257 7.66-13.295-9.57-.645-.463-.598.521-10.864 9.47-12.341-9.219v-150.499h262m1-1h-264v152l13.391 10 11.474-10 13.891 10 10.244-8.4v-110.6h154v114.66l8.078-5.66 4.922 4.18v-113.18h38v116.95l10-7.45v-152.5z"
       fill="#eaecf0"
       id="path8" />
  </g>
  <path
     d="M203 157.66v-114.66h-154v110.6l2.145-1.6 12.555 10 13.809-10 14.229 10 12.972-10 12.973 10 13.811-10 12.136 10 13.391-10 14.229 10 12.972-10 12.974 10 5.804-4.34z"
     fill="#eaecf0"
     id="path10" />
  <path
     d="M11 36c0-7.732 6.268-14 14-14s14 6.268 14 14-6.268 14-14 14-14-6.268-14-14z"
     fill="#eaecf0"
     id="path12" />
  <path
     d="M254 159.95v-116.95h-38v113.18l7.551 5.82 13.811-10 13.891 10 2.747-2.05z"
     fill="#eaecf0"
     id="path14" />
  <path
     d="M38 107v-35h-25v35h25z"
     fill="#eaecf0"
     id="path16" />
  <path
     d="M232.51 5h26v6h-26v-6z"
     fill="#eaecf0"
     id="path18" />
  <path
     fill="#eaecf0"
     d="M208.51 5h22v6h-22z"
     id="path20" />
  <path
     d="M142 6v4h-92v-4h92m1-1h-94v6h94v-6z"
     fill="#eaecf0"
     id="path22" />
  <path
     fill="#eaecf0"
     d="M184.51 5h22v6h-22z"
     id="path24" />
  <path
     fill="#eaecf0"
     d="M161.51 5h13v6h-13z"
     id="path26" />
  <path
     fill="#eaecf0"
     d="M176.51 5h6v6h-6z"
     id="path28" />
  <path
     fill="#eaecf0"
     d="M153.51 5h6v6h-6z"
     id="path30" />
  <path
     fill="#eaecf0"
     d="M9 5h32v6h-32z"
     id="path32" />
  <path
     d="M2 14.5h260"
     fill="#eaecf0"
     stroke="#eaecf0"
     id="path34" />
  <path
     fill="#eaecf0"
     d="M52 7h2v2h-2z"
     id="path36" />
  <path
     d="M38 59v-5h-25v5h25z"
     fill="#eaecf0"
     id="path38" />
  <path
     inkscape:connector-curvature="0"
     style="fill:#eaecf0"
     d="m 38.166667,141 0,-35 -25,0 0,35 25,0 z"
     id="path16-7" />
  <path
     inkscape:connector-curvature="0"
     style="fill:#36c"
     d="m 134.33333,51.916666 -78,0 0,45.999997 78,0 0,-45.999997 z m -52.909458,20.535713 2.808,0 17.403208,13.966338 9.44992,-4.279643 14.235,8.755196 0,0.04025 -62.300878,0 18.40475,-18.482141 z"
     id="path46" />
  <rect
     style="fill:#fff6ff;fill-opacity:1;stroke:none;stroke-opacity:1"
     id="rect4223"
     width="72.416664"
     height="2.75"
     x="57.75"
     y="92.333336"
     rx="0.15099999" />
  <text
     xml:space="preserve"
     style="font-style:normal;font-weight:normal;font-size:19.77245903px;line-height:125%;font-family:sans-serif;letter-spacing:0px;word-spacing:0px;fill:#fff6ff;fill-opacity:1;stroke:none;stroke-width:1px;stroke-linecap:butt;stroke-linejoin:miter;stroke-opacity:1;opacity:1;"
     x="68.198181"
     y="92.219078"
     id="text4229"
     sodipodi:linespacing="125%"
     transform="scale(1.3064358,0.76544139)"><tspan
       sodipodi:role="line"
       id="tspan4231"
       x="68.198181"
       y="92.219078">VJ</tspan></text>
</svg>
